<svg width="23" height="31" viewBox="0 0 23 31" fill="none" xmlns="http://www.w3.org/2000/svg">
<path d="M11.4999 0.0833282C14.362 0.0833282 17.1069 1.2203 19.1308 3.24413C21.1546 5.26796 22.2916 8.01287 22.2916 10.875C22.2916 14.5442 20.457 17.7662 17.6666 19.7242V23.2083C17.6666 23.6172 17.5042 24.0093 17.215 24.2985C16.9259 24.5876 16.5338 24.75 16.1249 24.75H6.87492C6.46604 24.75 6.07391 24.5876 5.7848 24.2985C5.49568 24.0093 5.33325 23.6172 5.33325 23.2083V19.7242C2.54284 17.7662 0.708252 14.5442 0.708252 10.875C0.708252 8.01287 1.84523 5.26796 3.86906 3.24413C5.89289 1.2203 8.63779 0.0833282 11.4999 0.0833282M6.87492 29.375V27.8333H16.1249V29.375C16.1249 29.7839 15.9625 30.176 15.6734 30.4651C15.3843 30.7542 14.9921 30.9167 14.5833 30.9167H8.41659C8.00771 30.9167 7.61558 30.7542 7.32646 30.4651C7.03734 30.176 6.87492 29.7839 6.87492 29.375ZM11.4999 3.16666C9.45554 3.16666 7.4949 3.97879 6.0493 5.42438C4.60371 6.86997 3.79159 8.83062 3.79159 10.875C3.79159 14.0354 5.68784 16.7487 8.41659 17.9358V21.6667H14.5833V17.9358C17.312 16.7487 19.2083 14.0354 19.2083 10.875C19.2083 8.83062 18.3961 6.86997 16.9505 5.42438C15.5049 3.97879 13.5443 3.16666 11.4999 3.16666V3.16666Z" fill="black"/>
</svg>
