<svg width="22" height="30" viewBox="0 0 28 36" fill="none" xmlns="http://www.w3.org/2000/svg">
<path d="M14 27.4286C12.0575 27.4286 10.5 25.8857 10.5 24C10.5 22.0971 12.0575 20.5714 14 20.5714C14.9283 20.5714 15.8185 20.9327 16.4749 21.5756C17.1312 22.2186 17.5 23.0907 17.5 24C17.5 24.9093 17.1312 25.7814 16.4749 26.4244C15.8185 27.0673 14.9283 27.4286 14 27.4286ZM24.5 32.5714V15.4286H3.5V32.5714H24.5ZM24.5 12C25.4283 12 26.3185 12.3612 26.9749 13.0042C27.6312 13.6472 28 14.5193 28 15.4286V32.5714C28 33.4807 27.6312 34.3528 26.9749 34.9958C26.3185 35.6388 25.4283 36 24.5 36H3.5C1.5575 36 0 34.4571 0 32.5714V15.4286C0 13.5257 1.5575 12 3.5 12H5.25V8.57143C5.25 6.29814 6.17187 4.11797 7.81282 2.51051C9.45376 0.903059 11.6794 0 14 0C15.1491 0 16.2869 0.221707 17.3485 0.652461C18.4101 1.08322 19.3747 1.71458 20.1872 2.51051C20.9997 3.30644 21.6442 4.25135 22.0839 5.29128C22.5237 6.33122 22.75 7.44581 22.75 8.57143V12H24.5ZM14 3.42857C12.6076 3.42857 11.2723 3.97041 10.2877 4.93488C9.30312 5.89935 8.75 7.20746 8.75 8.57143V12H19.25V8.57143C19.25 7.20746 18.6969 5.89935 17.7123 4.93488C16.7277 3.97041 15.3924 3.42857 14 3.42857Z" fill="black"/>
</svg>
