<svg width="30" height="30" viewBox="0 0 33 33" fill="none" xmlns="http://www.w3.org/2000/svg">
<path d="M26.675 2.2C26.125 1.65 25.4375 1.375 24.75 1.375H8.25C7.5625 1.375 6.875 1.65 6.325 2.2C5.775 2.75 5.5 3.4375 5.5 4.125V28.875C5.5 29.5625 5.775 30.25 6.325 30.8C6.875 31.35 7.5625 31.625 8.25 31.625H24.75C25.4375 31.625 26.125 31.35 26.675 30.8C27.225 30.25 27.5 29.5625 27.5 28.875V4.125C27.5 3.4375 27.225 2.75 26.675 2.2ZM24.75 28.875H8.25V4.125H24.75V28.875ZM11 8.25V24.75H22V8.25H11ZM20.625 23.375H12.375V9.625H20.625V23.375ZM13.75 19.25H19.25V22H13.75V19.25Z" fill="black"/>
</svg>

